<svg width="240" height="42" viewBox="0 0 240 42" fill="none" xmlns="http://www.w3.org/2000/svg">
<rect y="2" width="240" height="40" rx="11" fill="#2A3750"/>
<rect width="240" height="40" rx="11" fill="#32415F"/>
<path d="M33.219 14.2707V23.4323C33.2128 25.2286 32.3178 26.0552 30.9815 26.0552C29.6949 26.0552 28.7377 25.2907 28.7377 24.1657H27.5008C27.5008 25.9993 28.9739 27.174 30.9815 27.174C33.0326 27.174 34.4684 25.9185 34.4746 23.4323V14.2707H33.219ZM41.0193 27.1989C43.5241 27.1989 45.252 25.1851 45.252 22.27C45.252 19.3363 43.5179 17.3225 41.0193 17.3225C38.5206 17.3225 36.7803 19.3301 36.7803 22.27C36.7803 25.1851 38.5206 27.1989 41.0193 27.1989ZM37.9861 22.27C37.9861 20.1754 39.0614 18.3978 41.0193 18.3978C42.9771 18.3978 44.0524 20.1754 44.0524 22.27C44.0524 24.3646 42.9771 26.1236 41.0193 26.1236C39.0552 26.1236 37.9861 24.3646 37.9861 22.27ZM47.3498 27H48.5556V17.453H47.3498V27ZM47.0825 14.9917C47.0825 15.4579 47.4803 15.8308 47.9651 15.8308C48.4313 15.8308 48.8353 15.4579 48.8353 14.9917C48.8353 14.5318 48.4313 14.1588 47.9651 14.1588C47.4803 14.1588 47.0825 14.5318 47.0825 14.9917ZM52.3338 21.0767C52.3338 19.4171 53.4091 18.4164 54.8884 18.4164C56.3366 18.4164 57.2441 19.3798 57.2441 20.9151V27H58.4499V20.8343C58.4499 18.5532 57.1384 17.3287 55.2116 17.3287C53.8007 17.3287 52.8497 17.9751 52.4022 18.9634H52.3028V17.453H51.1343V27H52.3338V21.0767ZM69.2313 17.453H67.2237V15.1657H66.0241V17.453H64.5945V18.4786H66.0241V24.7438C66.0241 26.3287 67.2734 27.1367 68.5165 27.1367C68.9205 27.1367 69.2188 27.1119 69.4177 27.0808V25.962C69.2188 25.9682 68.8584 25.9931 68.6284 25.9931C67.895 25.9931 67.2237 25.6575 67.2237 24.4579V18.4786H69.2313V17.453ZM72.7772 21.0767C72.7772 19.4171 73.8836 18.4164 75.3815 18.4164C76.8421 18.4164 77.762 19.3612 77.762 20.9151V27H78.9616V20.8343C78.9616 18.5345 77.6439 17.3287 75.7047 17.3287C74.2565 17.3287 73.3304 17.9689 72.8829 18.9634H72.7772V14.2707H71.5776V27H72.7772V21.0767ZM85.4177 27.1989C87.3507 27.1989 88.7057 26.1547 89.1346 24.837H87.848C87.5123 25.4461 86.7354 26.1236 85.4177 26.1236C83.5282 26.1236 82.3038 24.7438 82.2478 22.5932H89.321V22.0276C89.321 18.7831 87.3259 17.3225 85.2561 17.3225C82.7637 17.3225 81.042 19.386 81.042 22.2887C81.042 25.1851 82.7326 27.1989 85.4177 27.1989ZM82.254 21.549C82.3597 19.8273 83.5469 18.3978 85.2623 18.3978C86.9343 18.3978 88.1028 19.7652 88.1028 21.549H82.254ZM99.7679 27C103.609 27 105.791 24.607 105.797 20.6043C105.797 16.6512 103.634 14.2707 99.9792 14.2707H95.9889V27H99.7679ZM97.2382 25.8812V15.3895H99.9046C102.963 15.3895 104.572 17.3536 104.572 20.6043C104.579 23.8923 102.932 25.8812 99.6995 25.8812H97.2382ZM108.047 27H109.253V17.453H108.047V27ZM107.78 14.9917C107.78 15.4579 108.178 15.8308 108.662 15.8308C109.129 15.8308 109.533 15.4579 109.533 14.9917C109.533 14.5318 109.129 14.1588 108.662 14.1588C108.178 14.1588 107.78 14.5318 107.78 14.9917ZM117.133 19.8211H118.327C118.115 18.3419 116.922 17.3225 115.045 17.3225C113.044 17.3163 111.676 18.4537 111.676 20.0449C111.676 21.3004 112.528 22.1954 114.137 22.5746L115.592 22.9227C116.717 23.1837 117.233 23.712 117.233 24.4703C117.233 25.4834 116.307 26.1423 114.858 26.1423C113.566 26.1423 112.795 25.614 112.608 24.576H111.353C111.602 26.2604 112.851 27.1989 114.877 27.1989C117.14 27.1989 118.463 26.0242 118.463 24.4019C118.463 23.1153 117.662 22.2638 116.039 21.8722L114.591 21.518C113.423 21.2258 112.876 20.7162 112.876 19.9827C112.876 19.0628 113.771 18.3605 115.045 18.3605C116.22 18.3667 116.928 18.9323 117.133 19.8211ZM124.323 27.1989C126.337 27.1989 127.742 25.9309 127.99 24.1968H126.791C126.53 25.3902 125.56 26.1112 124.323 26.1112C122.483 26.1112 121.271 24.5325 121.271 22.2327C121.271 19.9517 122.514 18.3978 124.323 18.3978C125.666 18.3978 126.554 19.2617 126.784 20.3059H127.984C127.735 18.5221 126.237 17.3225 124.304 17.3225C121.781 17.3225 120.065 19.3923 120.065 22.27C120.065 25.1167 121.731 27.1989 124.323 27.1989ZM133.761 27.1989C136.266 27.1989 137.994 25.1851 137.994 22.27C137.994 19.3363 136.26 17.3225 133.761 17.3225C131.263 17.3225 129.522 19.3301 129.522 22.27C129.522 25.1851 131.263 27.1989 133.761 27.1989ZM130.728 22.27C130.728 20.1754 131.804 18.3978 133.761 18.3978C135.719 18.3978 136.795 20.1754 136.795 22.27C136.795 24.3646 135.719 26.1236 133.761 26.1236C131.797 26.1236 130.728 24.3646 130.728 22.27ZM140.08 27H141.279V20.8715C141.279 19.4855 142.354 18.4662 143.821 18.4662C144.126 18.4662 144.424 18.5221 144.53 18.5407V17.3287C144.381 17.3225 144.101 17.3101 143.915 17.3101C142.727 17.3101 141.708 17.9565 141.329 18.9261H141.248V17.453H140.08V27ZM149.254 27.1989C151.001 27.1989 151.778 26.105 152.17 25.2721H152.3V27H153.462V14.2707H152.263V19.2307H152.17C151.797 18.4164 151.032 17.3225 149.273 17.3225C146.924 17.3225 145.308 19.2928 145.308 22.2514C145.308 25.2224 146.911 27.1989 149.254 27.1989ZM146.52 22.2327C146.52 20.0698 147.527 18.404 149.416 18.404C151.256 18.404 152.288 19.9765 152.288 22.2327C152.288 24.4952 151.237 26.1112 149.416 26.1112C147.545 26.1112 146.52 24.4144 146.52 22.2327ZM167.764 17.4717H168.982C168.907 15.5262 167.211 14.0905 164.824 14.0905C162.443 14.0905 160.616 15.5014 160.616 17.5773C160.616 19.2307 161.784 20.2562 163.786 20.8405L165.309 21.2818C166.85 21.7293 167.938 22.3011 167.938 23.5815C167.938 25.0794 166.583 26.0801 164.706 26.0801C163.021 26.0801 161.685 25.2783 161.561 23.7866H160.28C160.423 25.8315 162.077 27.2175 164.706 27.2175C167.503 27.2175 169.156 25.6512 169.156 23.6001C169.156 21.4496 167.267 20.6105 165.675 20.1692L164.351 19.7963C163.146 19.4606 161.834 18.8515 161.834 17.5214C161.834 16.1851 163.034 15.2093 164.787 15.2093C166.44 15.2093 167.633 16.0794 167.764 17.4717ZM175.277 27.1989C177.21 27.1989 178.565 26.1547 178.994 24.837H177.707C177.372 25.4461 176.595 26.1236 175.277 26.1236C173.388 26.1236 172.163 24.7438 172.107 22.5932H179.18V22.0276C179.18 18.7831 177.185 17.3225 175.115 17.3225C172.623 17.3225 170.901 19.386 170.901 22.2887C170.901 25.1851 172.592 27.1989 175.277 27.1989ZM172.113 21.549C172.219 19.8273 173.406 18.3978 175.122 18.3978C176.794 18.3978 177.962 19.7652 177.962 21.549H172.113ZM181.265 27H182.465V20.8715C182.465 19.4855 183.54 18.4662 185.007 18.4662C185.311 18.4662 185.61 18.5221 185.715 18.5407V17.3287C185.566 17.3225 185.287 17.3101 185.1 17.3101C183.913 17.3101 182.894 17.9565 182.514 18.9261H182.434V17.453H181.265V27ZM195.065 17.453H193.772L190.982 25.4399H190.901L188.11 17.453H186.817L190.304 27H191.572L195.065 17.453ZM200.414 27.1989C202.347 27.1989 203.702 26.1547 204.131 24.837H202.844C202.508 25.4461 201.731 26.1236 200.414 26.1236C198.524 26.1236 197.3 24.7438 197.244 22.5932H204.317V22.0276C204.317 18.7831 202.322 17.3225 200.252 17.3225C197.76 17.3225 196.038 19.386 196.038 22.2887C196.038 25.1851 197.729 27.1989 200.414 27.1989ZM197.25 21.549C197.356 19.8273 198.543 18.3978 200.258 18.3978C201.93 18.3978 203.099 19.7652 203.099 21.549H197.25ZM206.402 27H207.601V20.8715C207.601 19.4855 208.677 18.4662 210.144 18.4662C210.448 18.4662 210.746 18.5221 210.852 18.5407V17.3287C210.703 17.3225 210.423 17.3101 210.237 17.3101C209.05 17.3101 208.03 17.9565 207.651 18.9261H207.57V17.453H206.402V27Z" fill="#6F8EFF"/>
</svg>
