<svg width="240" height="40" viewBox="0 0 240 40" fill="none" xmlns="http://www.w3.org/2000/svg">
<rect x="0.5" y="0.5" width="239" height="39" rx="10.5" fill="#32415F" stroke="#526EA5"/>
<path d="M34.219 13.2707V22.4323C34.2128 24.2286 33.3178 25.0552 31.9815 25.0552C30.6949 25.0552 29.7377 24.2907 29.7377 23.1657H28.5008C28.5008 24.9993 29.9739 26.174 31.9815 26.174C34.0326 26.174 35.4684 24.9185 35.4746 22.4323V13.2707H34.219ZM42.0193 26.1989C44.5241 26.1989 46.252 24.1851 46.252 21.27C46.252 18.3363 44.5179 16.3225 42.0193 16.3225C39.5206 16.3225 37.7803 18.3301 37.7803 21.27C37.7803 24.1851 39.5206 26.1989 42.0193 26.1989ZM38.9861 21.27C38.9861 19.1754 40.0614 17.3978 42.0193 17.3978C43.9771 17.3978 45.0524 19.1754 45.0524 21.27C45.0524 23.3646 43.9771 25.1236 42.0193 25.1236C40.0552 25.1236 38.9861 23.3646 38.9861 21.27ZM48.3498 26H49.5556V16.453H48.3498V26ZM48.0825 13.9917C48.0825 14.4579 48.4803 14.8308 48.9651 14.8308C49.4313 14.8308 49.8353 14.4579 49.8353 13.9917C49.8353 13.5318 49.4313 13.1588 48.9651 13.1588C48.4803 13.1588 48.0825 13.5318 48.0825 13.9917ZM53.3338 20.0767C53.3338 18.4171 54.4091 17.4164 55.8884 17.4164C57.3366 17.4164 58.2441 18.3798 58.2441 19.9151V26H59.4499V19.8343C59.4499 17.5532 58.1384 16.3287 56.2116 16.3287C54.8007 16.3287 53.8497 16.9751 53.4022 17.9634H53.3028V16.453H52.1343V26H53.3338V20.0767ZM70.2313 16.453H68.2237V14.1657H67.0241V16.453H65.5945V17.4786H67.0241V23.7438C67.0241 25.3287 68.2734 26.1367 69.5165 26.1367C69.9205 26.1367 70.2188 26.1119 70.4177 26.0808V24.962C70.2188 24.9682 69.8584 24.9931 69.6284 24.9931C68.895 24.9931 68.2237 24.6575 68.2237 23.4579V17.4786H70.2313V16.453ZM73.7772 20.0767C73.7772 18.4171 74.8836 17.4164 76.3815 17.4164C77.8421 17.4164 78.762 18.3612 78.762 19.9151V26H79.9616V19.8343C79.9616 17.5345 78.6439 16.3287 76.7047 16.3287C75.2565 16.3287 74.3304 16.9689 73.8829 17.9634H73.7772V13.2707H72.5776V26H73.7772V20.0767ZM86.4177 26.1989C88.3507 26.1989 89.7057 25.1547 90.1346 23.837H88.848C88.5123 24.4461 87.7354 25.1236 86.4177 25.1236C84.5282 25.1236 83.3038 23.7438 83.2478 21.5932H90.321V21.0276C90.321 17.7831 88.3259 16.3225 86.2561 16.3225C83.7637 16.3225 82.042 18.386 82.042 21.2887C82.042 24.1851 83.7326 26.1989 86.4177 26.1989ZM83.254 20.549C83.3597 18.8273 84.5469 17.3978 86.2623 17.3978C87.9343 17.3978 89.1028 18.7652 89.1028 20.549H83.254ZM100.768 26C104.609 26 106.791 23.607 106.797 19.6043C106.797 15.6512 104.634 13.2707 100.979 13.2707H96.9889V26H100.768ZM98.2382 24.8812V14.3895H100.905C103.963 14.3895 105.572 16.3536 105.572 19.6043C105.579 22.8923 103.932 24.8812 100.7 24.8812H98.2382ZM109.047 26H110.253V16.453H109.047V26ZM108.78 13.9917C108.78 14.4579 109.178 14.8308 109.662 14.8308C110.129 14.8308 110.533 14.4579 110.533 13.9917C110.533 13.5318 110.129 13.1588 109.662 13.1588C109.178 13.1588 108.78 13.5318 108.78 13.9917ZM118.133 18.8211H119.327C119.115 17.3419 117.922 16.3225 116.045 16.3225C114.044 16.3163 112.676 17.4537 112.676 19.0449C112.676 20.3004 113.528 21.1954 115.137 21.5746L116.592 21.9227C117.717 22.1837 118.233 22.712 118.233 23.4703C118.233 24.4834 117.307 25.1423 115.858 25.1423C114.566 25.1423 113.795 24.614 113.608 23.576H112.353C112.602 25.2604 113.851 26.1989 115.877 26.1989C118.14 26.1989 119.463 25.0242 119.463 23.4019C119.463 22.1153 118.662 21.2638 117.039 20.8722L115.591 20.518C114.423 20.2258 113.876 19.7162 113.876 18.9827C113.876 18.0628 114.771 17.3605 116.045 17.3605C117.22 17.3667 117.928 17.9323 118.133 18.8211ZM125.323 26.1989C127.337 26.1989 128.742 24.9309 128.99 23.1968H127.791C127.53 24.3902 126.56 25.1112 125.323 25.1112C123.483 25.1112 122.271 23.5325 122.271 21.2327C122.271 18.9517 123.514 17.3978 125.323 17.3978C126.666 17.3978 127.554 18.2617 127.784 19.3059H128.984C128.735 17.5221 127.237 16.3225 125.304 16.3225C122.781 16.3225 121.065 18.3923 121.065 21.27C121.065 24.1167 122.731 26.1989 125.323 26.1989ZM134.761 26.1989C137.266 26.1989 138.994 24.1851 138.994 21.27C138.994 18.3363 137.26 16.3225 134.761 16.3225C132.263 16.3225 130.522 18.3301 130.522 21.27C130.522 24.1851 132.263 26.1989 134.761 26.1989ZM131.728 21.27C131.728 19.1754 132.804 17.3978 134.761 17.3978C136.719 17.3978 137.795 19.1754 137.795 21.27C137.795 23.3646 136.719 25.1236 134.761 25.1236C132.797 25.1236 131.728 23.3646 131.728 21.27ZM141.08 26H142.279V19.8715C142.279 18.4855 143.354 17.4662 144.821 17.4662C145.126 17.4662 145.424 17.5221 145.53 17.5407V16.3287C145.381 16.3225 145.101 16.3101 144.915 16.3101C143.727 16.3101 142.708 16.9565 142.329 17.9261H142.248V16.453H141.08V26ZM150.254 26.1989C152.001 26.1989 152.778 25.105 153.17 24.2721H153.3V26H154.462V13.2707H153.263V18.2307H153.17C152.797 17.4164 152.032 16.3225 150.273 16.3225C147.924 16.3225 146.308 18.2928 146.308 21.2514C146.308 24.2224 147.911 26.1989 150.254 26.1989ZM147.52 21.2327C147.52 19.0698 148.527 17.404 150.416 17.404C152.256 17.404 153.288 18.9765 153.288 21.2327C153.288 23.4952 152.237 25.1112 150.416 25.1112C148.545 25.1112 147.52 23.4144 147.52 21.2327ZM168.764 16.4717H169.982C169.907 14.5262 168.211 13.0905 165.824 13.0905C163.443 13.0905 161.616 14.5014 161.616 16.5773C161.616 18.2307 162.784 19.2562 164.786 19.8405L166.309 20.2818C167.85 20.7293 168.938 21.3011 168.938 22.5815C168.938 24.0794 167.583 25.0801 165.706 25.0801C164.021 25.0801 162.685 24.2783 162.561 22.7866H161.28C161.423 24.8315 163.077 26.2175 165.706 26.2175C168.503 26.2175 170.156 24.6512 170.156 22.6001C170.156 20.4496 168.267 19.6105 166.675 19.1692L165.351 18.7963C164.146 18.4606 162.834 17.8515 162.834 16.5214C162.834 15.1851 164.034 14.2093 165.787 14.2093C167.44 14.2093 168.633 15.0794 168.764 16.4717ZM176.277 26.1989C178.21 26.1989 179.565 25.1547 179.994 23.837H178.707C178.372 24.4461 177.595 25.1236 176.277 25.1236C174.388 25.1236 173.163 23.7438 173.107 21.5932H180.18V21.0276C180.18 17.7831 178.185 16.3225 176.115 16.3225C173.623 16.3225 171.901 18.386 171.901 21.2887C171.901 24.1851 173.592 26.1989 176.277 26.1989ZM173.113 20.549C173.219 18.8273 174.406 17.3978 176.122 17.3978C177.794 17.3978 178.962 18.7652 178.962 20.549H173.113ZM182.265 26H183.465V19.8715C183.465 18.4855 184.54 17.4662 186.007 17.4662C186.311 17.4662 186.61 17.5221 186.715 17.5407V16.3287C186.566 16.3225 186.287 16.3101 186.1 16.3101C184.913 16.3101 183.894 16.9565 183.514 17.9261H183.434V16.453H182.265V26ZM196.065 16.453H194.772L191.982 24.4399H191.901L189.11 16.453H187.817L191.304 26H192.572L196.065 16.453ZM201.414 26.1989C203.347 26.1989 204.702 25.1547 205.131 23.837H203.844C203.508 24.4461 202.731 25.1236 201.414 25.1236C199.524 25.1236 198.3 23.7438 198.244 21.5932H205.317V21.0276C205.317 17.7831 203.322 16.3225 201.252 16.3225C198.76 16.3225 197.038 18.386 197.038 21.2887C197.038 24.1851 198.729 26.1989 201.414 26.1989ZM198.25 20.549C198.356 18.8273 199.543 17.3978 201.258 17.3978C202.93 17.3978 204.099 18.7652 204.099 20.549H198.25ZM207.402 26H208.601V19.8715C208.601 18.4855 209.677 17.4662 211.144 17.4662C211.448 17.4662 211.746 17.5221 211.852 17.5407V16.3287C211.703 16.3225 211.423 16.3101 211.237 16.3101C210.05 16.3101 209.03 16.9565 208.651 17.9261H208.57V16.453H207.402V26Z" fill="#6F8EFF"/>
</svg>
