<svg width="200" height="42" viewBox="0 0 200 42" fill="none" xmlns="http://www.w3.org/2000/svg">
<rect y="2" width="200" height="40" rx="11" fill="#2A3750"/>
<rect width="200" height="40" rx="11" fill="#32415F"/>
<path d="M13.719 14.2707V23.4323C13.7128 25.2286 12.8178 26.0552 11.4815 26.0552C10.1949 26.0552 9.23769 25.2907 9.23769 24.1657H8.00081C8.00081 25.9993 9.47388 27.174 11.4815 27.174C13.5326 27.174 14.9684 25.9185 14.9746 23.4323V14.2707H13.719ZM21.5193 27.1989C24.0241 27.1989 25.752 25.1851 25.752 22.27C25.752 19.3363 24.0179 17.3225 21.5193 17.3225C19.0206 17.3225 17.2803 19.3301 17.2803 22.27C17.2803 25.1851 19.0206 27.1989 21.5193 27.1989ZM18.4861 22.27C18.4861 20.1754 19.5614 18.3978 21.5193 18.3978C23.4771 18.3978 24.5524 20.1754 24.5524 22.27C24.5524 24.3646 23.4771 26.1236 21.5193 26.1236C19.5552 26.1236 18.4861 24.3646 18.4861 22.27ZM27.8498 27H29.0556V17.453H27.8498V27ZM27.5825 14.9917C27.5825 15.4579 27.9803 15.8308 28.4651 15.8308C28.9313 15.8308 29.3353 15.4579 29.3353 14.9917C29.3353 14.5318 28.9313 14.1588 28.4651 14.1588C27.9803 14.1588 27.5825 14.5318 27.5825 14.9917ZM32.8338 21.0767C32.8338 19.4171 33.9091 18.4164 35.3884 18.4164C36.8366 18.4164 37.7441 19.3798 37.7441 20.9151V27H38.9499V20.8343C38.9499 18.5532 37.6384 17.3287 35.7116 17.3287C34.3007 17.3287 33.3497 17.9751 32.9022 18.9634H32.8028V17.453H31.6343V27H32.8338V21.0767ZM49.7313 17.453H47.7237V15.1657H46.5241V17.453H45.0945V18.4786H46.5241V24.7438C46.5241 26.3287 47.7734 27.1367 49.0165 27.1367C49.4205 27.1367 49.7188 27.1119 49.9177 27.0808V25.962C49.7188 25.9682 49.3584 25.9931 49.1284 25.9931C48.395 25.9931 47.7237 25.6575 47.7237 24.4579V18.4786H49.7313V17.453ZM53.2772 21.0767C53.2772 19.4171 54.3836 18.4164 55.8815 18.4164C57.3421 18.4164 58.262 19.3612 58.262 20.9151V27H59.4616V20.8343C59.4616 18.5345 58.1439 17.3287 56.2047 17.3287C54.7565 17.3287 53.8304 17.9689 53.3829 18.9634H53.2772V14.2707H52.0776V27H53.2772V21.0767ZM65.9177 27.1989C67.8507 27.1989 69.2057 26.1547 69.6346 24.837H68.348C68.0123 25.4461 67.2354 26.1236 65.9177 26.1236C64.0282 26.1236 62.8038 24.7438 62.7478 22.5932H69.821V22.0276C69.821 18.7831 67.8259 17.3225 65.7561 17.3225C63.2637 17.3225 61.542 19.386 61.542 22.2887C61.542 25.1851 63.2326 27.1989 65.9177 27.1989ZM62.754 21.549C62.8597 19.8273 64.0469 18.3978 65.7623 18.3978C67.4343 18.3978 68.6028 19.7652 68.6028 21.549H62.754ZM80.2679 27C84.109 27 86.2907 24.607 86.2969 20.6043C86.2969 16.6512 84.1339 14.2707 80.4792 14.2707H76.4889V27H80.2679ZM77.7382 25.8812V15.3895H80.4046C83.4626 15.3895 85.0724 17.3536 85.0724 20.6043C85.0787 23.8923 83.4316 25.8812 80.1995 25.8812H77.7382ZM88.5471 27H89.7529V17.453H88.5471V27ZM88.2798 14.9917C88.2798 15.4579 88.6776 15.8308 89.1624 15.8308C89.6286 15.8308 90.0326 15.4579 90.0326 14.9917C90.0326 14.5318 89.6286 14.1588 89.1624 14.1588C88.6776 14.1588 88.2798 14.5318 88.2798 14.9917ZM97.6333 19.8211H98.8267C98.6154 18.3419 97.422 17.3225 95.5449 17.3225C93.5435 17.3163 92.1761 18.4537 92.1761 20.0449C92.1761 21.3004 93.0277 22.1954 94.6375 22.5746L96.0919 22.9227C97.2169 23.1837 97.7328 23.712 97.7328 24.4703C97.7328 25.4834 96.8067 26.1423 95.3585 26.1423C94.0656 26.1423 93.2949 25.614 93.1085 24.576H91.8529C92.1016 26.2604 93.3509 27.1989 95.3771 27.1989C97.6395 27.1989 98.9634 26.0242 98.9634 24.4019C98.9634 23.1153 98.1616 22.2638 96.5394 21.8722L95.0912 21.518C93.9227 21.2258 93.3757 20.7162 93.3757 19.9827C93.3757 19.0628 94.2708 18.3605 95.5449 18.3605C96.7196 18.3667 97.4282 18.9323 97.6333 19.8211ZM104.823 27.1989C106.837 27.1989 108.242 25.9309 108.49 24.1968H107.291C107.03 25.3902 106.06 26.1112 104.823 26.1112C102.983 26.1112 101.771 24.5325 101.771 22.2327C101.771 19.9517 103.014 18.3978 104.823 18.3978C106.166 18.3978 107.054 19.2617 107.284 20.3059H108.484C108.235 18.5221 106.737 17.3225 104.804 17.3225C102.281 17.3225 100.565 19.3923 100.565 22.27C100.565 25.1167 102.231 27.1989 104.823 27.1989ZM114.261 27.1989C116.766 27.1989 118.494 25.1851 118.494 22.27C118.494 19.3363 116.76 17.3225 114.261 17.3225C111.763 17.3225 110.022 19.3301 110.022 22.27C110.022 25.1851 111.763 27.1989 114.261 27.1989ZM111.228 22.27C111.228 20.1754 112.304 18.3978 114.261 18.3978C116.219 18.3978 117.295 20.1754 117.295 22.27C117.295 24.3646 116.219 26.1236 114.261 26.1236C112.297 26.1236 111.228 24.3646 111.228 22.27ZM120.58 27H121.779V20.8715C121.779 19.4855 122.854 18.4662 124.321 18.4662C124.626 18.4662 124.924 18.5221 125.03 18.5407V17.3287C124.881 17.3225 124.601 17.3101 124.415 17.3101C123.227 17.3101 122.208 17.9565 121.829 18.9261H121.748V17.453H120.58V27ZM129.754 27.1989C131.501 27.1989 132.278 26.105 132.67 25.2721H132.8V27H133.962V14.2707H132.763V19.2307H132.67C132.297 18.4164 131.532 17.3225 129.773 17.3225C127.424 17.3225 125.808 19.2928 125.808 22.2514C125.808 25.2224 127.411 27.1989 129.754 27.1989ZM127.02 22.2327C127.02 20.0698 128.027 18.404 129.916 18.404C131.756 18.404 132.788 19.9765 132.788 22.2327C132.788 24.4952 131.737 26.1112 129.916 26.1112C128.045 26.1112 127.02 24.4144 127.02 22.2327ZM148.264 17.4717H149.482C149.407 15.5262 147.711 14.0905 145.324 14.0905C142.943 14.0905 141.116 15.5014 141.116 17.5773C141.116 19.2307 142.284 20.2562 144.286 20.8405L145.809 21.2818C147.35 21.7293 148.438 22.3011 148.438 23.5815C148.438 25.0794 147.083 26.0801 145.206 26.0801C143.521 26.0801 142.185 25.2783 142.061 23.7866H140.78C140.923 25.8315 142.577 27.2175 145.206 27.2175C148.003 27.2175 149.656 25.6512 149.656 23.6001C149.656 21.4496 147.767 20.6105 146.175 20.1692L144.851 19.7963C143.646 19.4606 142.334 18.8515 142.334 17.5214C142.334 16.1851 143.534 15.2093 145.287 15.2093C146.94 15.2093 148.133 16.0794 148.264 17.4717ZM155.777 27.1989C157.71 27.1989 159.065 26.1547 159.494 24.837H158.207C157.872 25.4461 157.095 26.1236 155.777 26.1236C153.888 26.1236 152.663 24.7438 152.607 22.5932H159.68V22.0276C159.68 18.7831 157.685 17.3225 155.615 17.3225C153.123 17.3225 151.401 19.386 151.401 22.2887C151.401 25.1851 153.092 27.1989 155.777 27.1989ZM152.613 21.549C152.719 19.8273 153.906 18.3978 155.622 18.3978C157.294 18.3978 158.462 19.7652 158.462 21.549H152.613ZM161.765 27H162.965V20.8715C162.965 19.4855 164.04 18.4662 165.507 18.4662C165.811 18.4662 166.11 18.5221 166.215 18.5407V17.3287C166.066 17.3225 165.787 17.3101 165.6 17.3101C164.413 17.3101 163.394 17.9565 163.014 18.9261H162.934V17.453H161.765V27ZM175.565 17.453H174.272L171.482 25.4399H171.401L168.61 17.453H167.317L170.804 27H172.072L175.565 17.453ZM180.914 27.1989C182.847 27.1989 184.202 26.1547 184.631 24.837H183.344C183.008 25.4461 182.231 26.1236 180.914 26.1236C179.024 26.1236 177.8 24.7438 177.744 22.5932H184.817V22.0276C184.817 18.7831 182.822 17.3225 180.752 17.3225C178.26 17.3225 176.538 19.386 176.538 22.2887C176.538 25.1851 178.229 27.1989 180.914 27.1989ZM177.75 21.549C177.856 19.8273 179.043 18.3978 180.758 18.3978C182.43 18.3978 183.599 19.7652 183.599 21.549H177.75ZM186.902 27H188.101V20.8715C188.101 19.4855 189.177 18.4662 190.644 18.4662C190.948 18.4662 191.246 18.5221 191.352 18.5407V17.3287C191.203 17.3225 190.923 17.3101 190.737 17.3101C189.55 17.3101 188.53 17.9565 188.151 18.9261H188.07V17.453H186.902V27Z" fill="#6F8EFF"/>
</svg>
